<svg width="38" height="38" viewBox="0 0 38 38" fill="none" xmlns="http://www.w3.org/2000/svg">
<path d="M0 19C0 8.50659 8.50659 0 19 0C29.4934 0 38 8.50659 38 19C38 29.4934 29.4934 38 19 38C8.50659 38 0 29.4934 0 19Z" fill="white"/>
<path fill-rule="evenodd" clip-rule="evenodd" d="M18.739 15.8689C18.739 15.1365 18.5472 14.5088 18.1647 13.9833C17.5272 13.1275 16.4464 12.689 14.9188 12.6667H8.86664V25.0218H14.5101C15.1464 25.0218 15.735 24.9678 16.2796 24.8561C16.8241 24.7432 17.2948 24.5375 17.694 24.2354C18.0491 23.9721 18.3446 23.6476 18.5806 23.2632C18.9535 22.6825 19.1394 22.0253 19.1394 21.293C19.1394 20.5829 18.9762 19.9787 18.652 19.4826C18.3244 18.9853 17.843 18.6221 17.2043 18.3917C17.6249 18.1801 17.943 17.945 18.1599 17.6887C18.5472 17.2302 18.739 16.6224 18.739 15.8689ZM27.1839 14.7803H21.8169V13.2427H27.1839V14.7803ZM22.4425 19.5496C22.5307 18.9548 22.7464 18.4834 23.0884 18.1354C23.4304 17.7874 23.9142 17.6134 24.5338 17.6134C25.1058 17.6134 25.5836 17.7768 25.972 18.1048C26.3557 18.4352 26.5726 18.9148 26.6167 19.5496H22.4425ZM26.7108 16.0711C27.3579 16.3556 27.8905 16.807 28.31 17.423C28.6925 17.9661 28.9379 18.5962 29.0499 19.3121C29.1155 19.7306 29.1417 20.3372 29.131 21.126H22.3829C22.4235 22.0418 22.7428 22.6848 23.3529 23.0528C23.7223 23.282 24.1668 23.3972 24.6887 23.3972C25.238 23.3972 25.6873 23.2573 26.0316 22.9787C26.2211 22.8271 26.3879 22.6178 26.5309 22.3498H29.0035C28.9379 22.8905 28.6377 23.4419 28.1062 24.0014C27.2768 24.889 26.115 25.3334 24.622 25.3334C23.3887 25.3334 22.3007 24.9595 21.3606 24.2095C20.4156 23.4607 19.9461 22.2405 19.9461 20.5524C19.9461 18.9689 20.3715 17.7545 21.2211 16.9093C22.0731 16.0664 23.1754 15.642 24.5326 15.642C25.3393 15.642 26.065 15.7855 26.7108 16.0711ZM11.363 22.8776V19.5825H14.4469C14.9831 19.5872 15.4014 19.6577 15.6993 19.7918C16.2319 20.0327 16.4964 20.4736 16.4964 21.1178C16.4964 21.8772 16.2224 22.3897 15.6731 22.6601C15.3716 22.8047 14.9474 22.8776 14.404 22.8776H11.363ZM11.363 14.8121V17.5382H14.4088C14.9509 17.5382 15.393 17.4359 15.7338 17.2314C16.0722 17.0268 16.2426 16.6648 16.2426 16.1475C16.2426 15.5703 16.0186 15.1906 15.5706 15.0049C15.1821 14.8767 14.6888 14.8121 14.0894 14.8121H11.363Z" fill="#3D3D3A"/>
</svg>
