<svg width="38" height="38" viewBox="0 0 38 38" fill="none" xmlns="http://www.w3.org/2000/svg">
<path d="M19.0002 0C8.50804 0 0 8.72175 0 19.481C0 28.0883 5.44412 35.3906 12.9935 37.9665C13.943 38.1469 14.2917 37.5439 14.2917 37.0294C14.2917 36.5648 14.274 35.0302 14.2659 33.4024C8.97999 34.5809 7.86461 31.1039 7.86461 31.1039C7.00031 28.8522 5.75498 28.2534 5.75498 28.2534C4.0311 27.0443 5.88493 27.0692 5.88493 27.0692C7.79287 27.2066 8.7975 29.0767 8.7975 29.0767C10.4921 32.0549 13.2423 31.1939 14.3266 30.6961C14.4971 29.437 14.9895 28.5776 15.5329 28.0912C11.3127 27.5986 6.87634 25.9281 6.87634 18.4636C6.87634 16.3367 7.61856 14.5988 8.834 13.2346C8.63672 12.7439 7.98637 10.7625 9.01806 8.07914C9.01806 8.07914 10.6136 7.55556 14.2445 10.076C15.76 9.64438 17.3855 9.42792 19.0002 9.4205C20.6149 9.42792 22.2415 9.64438 23.76 10.076C27.3864 7.55556 28.9797 8.07914 28.9797 8.07914C30.0139 10.7625 29.3633 12.7439 29.166 13.2346C30.3843 14.5988 31.1215 16.3367 31.1215 18.4636C31.1215 25.9459 26.6766 27.5934 22.4457 28.0757C23.1272 28.6802 23.7345 29.8658 23.7345 31.6833C23.7345 34.2899 23.7124 36.3877 23.7124 37.0294C23.7124 37.5478 24.0544 38.1552 25.0175 37.9639C32.5628 35.3851 38 28.0854 38 19.481C38 8.72175 29.4932 0 19.0002 0" fill="white"/>
<path d="M7.25235 27.8368C7.21058 27.9327 7.06235 27.9614 6.92731 27.8956C6.78975 27.8327 6.7125 27.702 6.75709 27.6059C6.79792 27.5072 6.94646 27.4797 7.0837 27.5459C7.22157 27.6088 7.30008 27.7407 7.25235 27.8368" fill="white"/>
<path d="M8.02052 28.7082C7.93008 28.7935 7.75327 28.7539 7.6333 28.6191C7.50925 28.4846 7.48601 28.3048 7.57771 28.2182C7.67099 28.1329 7.84246 28.1728 7.96682 28.3073C8.09087 28.4434 8.11505 28.6219 8.02052 28.7082" fill="white"/>
<path d="M8.76824 29.8191C8.65204 29.9012 8.46204 29.8242 8.34459 29.6527C8.22839 29.4812 8.22839 29.2754 8.3471 29.193C8.46487 29.1106 8.65204 29.1847 8.77107 29.355C8.88695 29.5294 8.88695 29.7351 8.76824 29.8191" fill="white"/>
<path d="M9.79271 30.8924C9.68876 31.009 9.46735 30.9776 9.3053 30.8186C9.13948 30.663 9.09332 30.4423 9.19758 30.3257C9.30279 30.2088 9.52545 30.2417 9.68876 30.3995C9.85332 30.5547 9.90357 30.7771 9.79271 30.8924" fill="white"/>
<path d="M11.2059 31.5155C11.16 31.6666 10.9468 31.7353 10.732 31.6711C10.5175 31.605 10.3771 31.428 10.4205 31.2753C10.4651 31.1233 10.6792 31.0517 10.8956 31.1204C11.1098 31.1862 11.2505 31.3619 11.2059 31.5155" fill="white"/>
<path d="M12.758 31.6312C12.7633 31.7903 12.5811 31.9222 12.3557 31.9251C12.1289 31.9302 11.9455 31.8014 11.943 31.6449C11.943 31.4843 12.1211 31.3536 12.3478 31.3498C12.5733 31.3453 12.758 31.4731 12.758 31.6312" fill="white"/>
<path d="M14.2023 31.3811C14.2293 31.5363 14.0726 31.6957 13.8486 31.7382C13.6285 31.7791 13.4247 31.6832 13.3967 31.5293C13.3694 31.3702 13.5289 31.2108 13.7488 31.1696C13.973 31.13 14.1737 31.2233 14.2023 31.3811" fill="white"/>
</svg>
