<svg width="38" height="38" viewBox="0 0 38 38" fill="none" xmlns="http://www.w3.org/2000/svg">
<path d="M0 19C0 8.50659 8.50659 0 19 0C29.4934 0 38 8.50659 38 19C38 29.4934 29.4934 38 19 38C8.50659 38 0 29.4934 0 19Z" fill="white"/>
<path fill-rule="evenodd" clip-rule="evenodd" d="M13.7107 11.7346C13.7107 12.9768 12.7756 13.9708 11.2742 13.9708H11.2467C9.80117 13.9708 8.86664 12.9768 8.86664 11.7346C8.86664 10.4662 9.82963 9.5 11.3026 9.5C12.7756 9.5 13.6827 10.4662 13.7107 11.7346ZM13.4271 15.7366V28.6738H9.12125V15.7366H13.4271ZM28.9553 28.6738L28.9555 21.256C28.9555 17.2823 26.8313 15.4328 23.9979 15.4328C21.7118 15.4328 20.6882 16.6885 20.1168 17.5694V15.737H15.8104C15.8672 16.9509 15.8104 28.6742 15.8104 28.6742H20.1168V21.449C20.1168 21.0623 20.1447 20.6766 20.2586 20.3998C20.5697 19.6273 21.2783 18.8276 22.4679 18.8276C24.0266 18.8276 24.6497 20.0139 24.6497 21.7524V28.6738H28.9553Z" fill="#3D3D3A"/>
</svg>
