<svg width="144" height="145" viewBox="0 0 144 145" fill="none" xmlns="http://www.w3.org/2000/svg">
<path d="M39.1309 24.4644C37.1754 24.9197 35.6162 25.011 34.4532 24.7381C33.2933 24.4546 32.4242 23.7943 31.8459 22.7571C31.1914 21.5835 31.1186 20.354 31.6272 19.0685C32.1389 17.7724 33.1453 16.7058 34.6465 15.8687C35.67 15.298 36.6912 14.988 37.7103 14.9385C38.7361 14.8853 39.6614 15.085 40.4862 15.5374C41.3178 15.9861 41.9638 16.6233 42.4242 17.4489L40.4488 18.5504C39.9466 17.6497 39.2662 17.1033 38.4077 16.9111C37.5453 16.7122 36.5922 16.9037 35.5482 17.4859C34.5793 18.0262 33.9418 18.6634 33.6356 19.3977C33.3324 20.1213 33.392 20.8618 33.8144 21.6192C34.153 22.2265 34.6961 22.599 35.4438 22.7367C36.1944 22.8637 37.2843 22.7569 38.7134 22.4163C40.1493 22.0718 41.3332 21.917 42.2651 21.952C43.2 21.9763 43.9906 22.175 44.6369 22.5481C45.2901 22.9174 45.8279 23.4807 46.2502 24.2381C46.9236 25.4459 46.9931 26.6773 46.4586 27.9325C45.9203 29.1808 44.863 30.2444 43.2868 31.1233C42.2633 31.6941 41.1996 32.0323 40.0957 32.138C38.988 32.2368 38.0016 32.0802 37.1367 31.668C36.2786 31.252 35.6079 30.6107 35.1247 29.7441L37.1001 28.6426C37.6023 29.5433 38.3308 30.0718 39.2857 30.2282C40.2435 30.3739 41.2786 30.1366 42.3908 29.5164C43.4279 28.9381 44.1049 28.2833 44.4217 27.5521C44.7385 26.8208 44.6933 26.0902 44.2862 25.3601C43.8791 24.63 43.3093 24.2097 42.5769 24.0993C41.8407 23.9821 40.692 24.1038 39.1309 24.4644Z" fill="black"/>
<path d="M74.6531 16.648C74.5686 18.463 73.9996 19.9007 72.946 20.9612C71.8997 22.0133 70.4491 22.6043 68.5943 22.734C66.5835 22.8747 64.9199 22.2666 63.6032 20.9099C62.2944 19.5526 61.5555 17.6659 61.3865 15.2499L61.272 13.6133C61.1614 12.0312 61.3446 10.6205 61.8218 9.38105C62.3068 8.14106 63.0452 7.16529 64.037 6.45372C65.0283 5.73437 66.2059 5.32699 67.5697 5.23159C69.3778 5.10513 70.8628 5.51031 72.0248 6.44714C73.1862 7.37618 73.9189 8.72679 74.223 10.499L71.9668 10.6568C71.6771 9.31433 71.1837 8.36206 70.4865 7.79996C69.7972 7.23732 68.868 6.99688 67.6989 7.07864C66.2649 7.17895 65.1759 7.78767 64.4317 8.90482C63.6953 10.0214 63.3955 11.5578 63.5323 13.514L63.6476 15.1623C63.7768 17.0093 64.2654 18.4514 65.1132 19.4885C65.9611 20.5256 67.0786 20.9957 68.4659 20.8987C69.7128 20.8114 70.6479 20.4641 71.2711 19.8566C71.9015 19.2408 72.2768 18.2239 72.3969 16.8058L74.6531 16.648Z" fill="black"/>
<path d="M97.4786 22.1984L93.9781 20.2468L90.617 26.2755L88.6415 25.1742L96.95 10.2712L101.884 13.0217C103.562 13.9576 104.639 15.0587 105.113 16.3251C105.595 17.5953 105.429 18.9606 104.615 20.4209C104.097 21.3489 103.394 22.0167 102.505 22.4244C101.622 22.8359 100.639 22.963 99.555 22.8059L99.529 31.083L99.4605 31.2058L97.352 30.0303L97.4786 22.1984ZM94.874 18.6398L97.8934 20.3232C98.8692 20.8672 99.7845 21.0465 100.639 20.8611C101.501 20.6795 102.167 20.1657 102.639 19.3195C103.153 18.3983 103.27 17.538 102.991 16.7386C102.719 15.9429 102.067 15.2525 101.033 14.6675L98.0239 12.9898L94.874 18.6398Z" fill="black"/>
<path d="M123.637 45.356C122.344 46.4156 121.035 47.1239 119.712 47.481C118.395 47.8332 117.155 47.8183 115.994 47.4366C114.833 47.0548 113.817 46.3321 112.945 45.2685C112.094 44.229 111.592 43.0995 111.441 41.8798C111.297 40.6552 111.512 39.4331 112.089 38.2135C112.676 36.995 113.587 35.8698 114.822 34.8377L115.774 34.0579C117.043 33.0181 118.345 32.3203 119.679 31.9643C121.014 31.6083 122.267 31.6217 123.439 32.0046C124.622 32.3886 125.64 33.1003 126.491 34.1397C127.358 35.1973 127.863 36.3383 128.008 37.5629C128.164 38.7886 127.934 40.0176 127.317 41.2499C126.707 42.4772 125.758 43.6182 124.471 44.6728L123.637 45.356ZM123.07 42.9265C124.636 41.6442 125.578 40.3471 125.897 39.0353C126.222 37.7186 125.921 36.4952 124.996 35.3651C124.094 34.2653 122.964 33.7422 121.604 33.7959C120.255 33.8507 118.83 34.478 117.329 35.6779L116.359 36.4725C114.842 37.7153 113.908 39.0105 113.558 40.358C113.218 41.7066 113.507 42.9399 114.423 44.0579C115.344 45.1819 116.465 45.7179 117.785 45.6659C119.112 45.6089 120.548 44.9632 122.091 43.7286L123.07 42.9265Z" fill="black"/>
<path d="M123.431 66.6894L122.877 74.7564L121.042 74.6304L121.75 64.3071L138.772 65.4752L138.618 67.7316L123.431 66.6894Z" fill="black"/>
<path d="M117.274 94.7318L113.021 101.609L111.456 100.641L116.899 91.8405L131.41 100.816L130.221 102.739L117.274 94.7318Z" fill="black"/>
<path d="M77.6401 121.195L79.6936 138.133L74.9122 138.713C73.4386 138.892 72.0962 138.724 70.8848 138.21C69.6735 137.695 68.6886 136.874 67.9302 135.747C67.164 134.62 66.6825 133.277 66.4858 131.719L66.3546 130.637C66.1609 129.04 66.3014 127.602 66.7762 126.325C67.2431 125.048 68.0115 124.019 69.0813 123.236C70.1434 122.454 71.4335 121.963 72.9517 121.763L77.6401 121.195ZM77.2371 136.566L75.6279 123.292L73.2779 123.577C71.5561 123.786 70.2831 124.483 69.4589 125.669C68.627 126.856 68.3309 128.438 68.5706 130.416L68.6905 131.405C68.9237 133.328 69.5584 134.766 70.5947 135.719C71.6241 136.68 72.9696 137.068 74.6312 136.882L77.2371 136.566Z" fill="black"/>
<path d="M36.4329 119.155C37.2408 117.692 38.1929 116.549 39.2894 115.726C40.3821 114.91 41.5384 114.464 42.7584 114.388C43.9784 114.312 45.1903 114.606 46.3941 115.27C47.5706 115.919 48.4551 116.782 49.0477 117.859C49.6366 118.942 49.8896 120.157 49.8069 121.504C49.7135 122.853 49.2849 124.236 48.5209 125.653L47.9263 126.73C47.1336 128.166 46.1837 129.298 45.0766 130.123C43.9695 130.949 42.8007 131.401 41.5701 131.481C40.3289 131.563 39.1201 131.28 37.9436 130.63C36.7466 129.97 35.8537 129.098 35.2648 128.014C34.6654 126.934 34.4233 125.707 34.5386 124.334C34.6501 122.968 35.1079 121.556 35.912 120.099L36.4329 119.155ZM37.8603 121.201C36.8826 122.973 36.4889 124.527 36.6793 125.864C36.866 127.207 37.5988 128.231 38.8779 128.937C40.1228 129.624 41.3667 129.691 42.6096 129.136C43.8419 128.585 44.9326 127.474 45.8818 125.802L46.4876 124.705C47.4352 122.988 47.8216 121.439 47.647 120.057C47.4618 118.679 46.7365 117.641 45.4711 116.943C44.1989 116.24 42.9591 116.158 41.7518 116.697C40.5408 117.242 39.4474 118.374 38.4718 120.093L37.8603 121.201Z" fill="black"/>
<path d="M25.6316 102.251L27.4355 100.867L25.4314 101.437L13.3918 104.3L12.4655 102.643L21.2518 93.9594L22.8234 92.5439L20.6412 93.3475L9.16071 96.7305L8.0572 94.7563L24.9693 90.0422L25.9699 91.8323L16.832 100.968L15.8281 101.838L17.095 101.438L29.7264 98.5529L30.727 100.343L17.8459 112.269L16.7481 110.305L25.6316 102.251Z" fill="black"/>
<path d="M22.1563 62.1356L22.1327 64.3972L8.89534 72.8494L22.0431 72.9866L22.0195 75.2482L4.95789 75.0702L4.98149 72.8086L18.2777 64.3335L5.07134 64.1958L5.09469 61.9576L22.1563 62.1356Z" fill="black"/>
</svg>
